<svg xmlns="http://www.w3.org/2000/svg" viewBox="0 0 64 64">
  <title>青绿电路板</title>
  <rect width="64" height="64" rx="12" fill="#087f89"/>
  <g fill="none" stroke="#b9eee2" stroke-width="4" stroke-linecap="round" stroke-linejoin="round">
    <path d="M26 24V14l-6-6M38 24V8M40 28h8l8-8M40 38h16M36 40v10l6 6M26 40v16M24 28H14l-6-6M24 38h-8l-8 8"/>
  </g>
  <rect x="22" y="22" width="20" height="20" rx="3" fill="#06555d" stroke="#e1f6e9" stroke-width="3"/>
  <rect x="29" y="29" width="6" height="6" rx="1" fill="#e1f6e9"/>
  <g fill="#e1f6e9">
    <circle cx="20" cy="8" r="3"/><circle cx="38" cy="8" r="3"/>
    <circle cx="56" cy="20" r="3"/><circle cx="56" cy="38" r="3"/>
    <circle cx="42" cy="56" r="3"/><circle cx="26" cy="56" r="3"/>
    <circle cx="8" cy="46" r="3"/><circle cx="8" cy="22" r="3"/>
  </g>
</svg>
